<svg width="5" height="6" viewBox="0 0 5 6" fill="none" xmlns="http://www.w3.org/2000/svg">
<path d="M4.3665 3.02896C4.36399 3.43841 4.24022 3.83795 4.01081 4.17711C3.7814 4.51628 3.45664 4.77987 3.07754 4.9346C2.69843 5.08932 2.28198 5.12825 1.88076 5.04647C1.47955 4.96468 1.11156 4.76586 0.823262 4.47509C0.534967 4.18431 0.339294 3.81464 0.260943 3.41274C0.182592 3.01084 0.225078 2.59474 0.383041 2.21697C0.541003 1.8392 0.807358 1.5167 1.14847 1.2902C1.48959 1.0637 1.89017 0.943348 2.29963 0.944342C2.57275 0.943654 2.84327 0.997232 3.09551 1.10197C3.34775 1.20671 3.57666 1.36052 3.76896 1.55447C3.96125 1.74841 4.1131 1.97863 4.21568 2.23176C4.31826 2.48488 4.36952 2.75586 4.3665 3.02896V3.02896ZM2.29202 3.70496C2.42862 3.70545 2.56228 3.66532 2.67601 3.58965C2.78974 3.51398 2.8784 3.4062 2.93071 3.28001C2.98302 3.15382 2.99661 3.01492 2.96978 2.88098C2.94294 2.74704 2.87688 2.62411 2.77999 2.52782C2.6831 2.43153 2.55976 2.36622 2.42566 2.34021C2.29156 2.3142 2.15275 2.32866 2.02688 2.38175C1.90102 2.43483 1.79379 2.52415 1.71882 2.63835C1.64386 2.75254 1.60454 2.88645 1.60588 3.02304C1.61461 3.20164 1.68987 3.37051 1.81685 3.4964C1.94384 3.6223 2.11335 3.69609 2.29202 3.70326V3.70496Z" fill="#262626"/>
</svg>
